<svg width="62" height="60" viewBox="0 0 62 60" fill="none" xmlns="http://www.w3.org/2000/svg">
<path d="M10.8974 0H50.641C56.6667 0 61.5385 4.87179 61.5385 10.8974V49.1026C61.5385 55.1282 56.6667 60 50.641 60H10.8974C4.87179 60 0 55.1282 0 49.1026V10.8974C0 4.87179 4.87179 0 10.8974 0Z" fill="#470137"/>
<path d="M32.359 15.7693L24.6667 28.4616L32.8718 41.9231C32.9231 42.0257 32.9487 42.1283 32.9231 42.2308C32.8974 42.3334 32.7949 42.2565 32.641 42.2821H26.7692C26.359 42.2821 26.0769 42.2565 25.8974 42.0001C25.359 40.9231 24.7949 39.8718 24.2564 38.7949C23.718 37.7436 23.1282 36.6667 22.5128 35.5642C21.8974 34.4616 21.2821 33.359 20.6667 32.2308H20.6154C20.0769 33.3334 19.4872 34.436 18.8974 35.5385C18.3077 36.6411 17.718 37.7436 17.1539 38.8206C16.5641 39.8975 15.9744 41.0001 15.3846 42.0513C15.2821 42.3077 15.0769 42.3334 14.7949 42.3334H9.15385C9.05129 42.3334 8.97436 42.3847 8.97436 42.2565C8.94872 42.1539 8.97436 42.0513 9.02565 41.9744L17 28.8975L9.23077 15.7436C9.15385 15.6411 9.12821 15.5385 9.17949 15.4872C9.23077 15.4103 9.33334 15.3847 9.4359 15.3847H15.2564C15.3846 15.3847 15.5128 15.4103 15.6154 15.436C15.718 15.4872 15.7949 15.5642 15.8718 15.6667C16.359 16.7693 16.9231 17.8718 17.5128 18.9744C18.1282 20.077 18.718 21.1539 19.359 22.2308C19.9744 23.3077 20.5385 24.3847 21.0769 25.4872H21.1282C21.6667 24.359 22.2308 23.2565 22.7949 22.1795C23.359 21.1026 23.9487 20.0257 24.5385 18.9488C25.1282 17.8718 25.6923 16.7693 26.2564 15.718C26.2821 15.6154 26.3333 15.5129 26.4103 15.4616C26.5128 15.4103 26.6154 15.3847 26.7436 15.4103H32.1539C32.2821 15.3847 32.4103 15.4616 32.4359 15.5898C32.4615 15.6154 32.4103 15.718 32.359 15.7693Z" fill="#FF61F6"/>
<path d="M44.2051 42.8206C42.3077 42.8462 40.4103 42.4616 38.6923 41.6667C37.0769 40.9231 35.7436 39.6924 34.8205 38.1795C33.8718 36.6154 33.4103 34.6667 33.4103 32.3334C33.3846 30.4359 33.8718 28.5641 34.8205 26.9231C35.7949 25.2565 37.2051 23.8718 38.8974 22.9488C40.6923 21.9488 42.8462 21.4616 45.3846 21.4616C45.5128 21.4616 45.6923 21.4616 45.9231 21.4872C46.1539 21.5129 46.4103 21.5129 46.718 21.5385V13.4359C46.718 13.2565 46.7949 13.1539 46.9744 13.1539H52.1795C52.3077 13.1282 52.4103 13.2308 52.4359 13.3334V37.7949C52.4359 38.2565 52.4615 38.7693 52.4872 39.3334C52.5385 39.8718 52.5641 40.3847 52.5898 40.8206C52.5898 41 52.5128 41.1539 52.3333 41.2308C51 41.7949 49.5898 42.2052 48.1539 42.4616C46.8462 42.6924 45.5385 42.8206 44.2051 42.8206ZM46.718 37.6924V26.4103C46.4872 26.359 46.2564 26.3077 46.0257 26.2821C45.7436 26.2565 45.4615 26.2308 45.1795 26.2308C44.1795 26.2308 43.1795 26.4359 42.2821 26.8975C41.4103 27.3334 40.6667 27.9744 40.1026 28.7949C39.5385 29.6154 39.2564 30.718 39.2564 32.0513C39.2308 32.9488 39.3846 33.8462 39.6923 34.6924C39.9487 35.3847 40.3333 36 40.8462 36.5129C41.3333 36.9744 41.9231 37.3334 42.5898 37.5385C43.2821 37.7693 44 37.8718 44.718 37.8718C45.1026 37.8718 45.4615 37.8462 45.7949 37.8206C46.1282 37.8462 46.4103 37.7949 46.718 37.6924Z" fill="#FF61F6"/>
</svg>
