<svg width="40" height="60" viewBox="0 0 40 60" fill="none" xmlns="http://www.w3.org/2000/svg">
<g clip-path="url(#clip0_11_295)">
<path d="M10 60C15.52 60 20 55.52 20 50V40H10C4.48 40 0 44.48 0 50C0 55.52 4.48 60 10 60Z" fill="#0ACF83"/>
<path d="M0 30C0 24.48 4.48 20 10 20H20V40H10C4.48 40 0 35.52 0 30Z" fill="#A259FF"/>
<path d="M0 10C0 4.48 4.48 0 10 0H20V20H10C4.48 20 0 15.52 0 10Z" fill="#F24E1E"/>
<path d="M20 0H30C35.52 0 40 4.48 40 10C40 15.52 35.52 20 30 20H20V0Z" fill="#FF7262"/>
<path d="M40 30C40 35.52 35.52 40 30 40C24.48 40 20 35.52 20 30C20 24.48 24.48 20 30 20C35.52 20 40 24.48 40 30Z" fill="#1ABCFE"/>
</g>
<defs>
<clipPath id="clip0_11_295">
<rect width="40" height="60" fill="white"/>
</clipPath>
</defs>
</svg>
