<svg width="62" height="60" viewBox="0 0 62 60" fill="none" xmlns="http://www.w3.org/2000/svg">
<g clip-path="url(#clip0_11_324)">
<path d="M10.8665 0H50.4972C56.5057 0 61.3636 4.8718 61.3636 10.8974V49.1026C61.3636 55.1282 56.5057 60 50.4972 60H10.8665C4.85795 60 0 55.1282 0 49.1026V10.8974C0 4.8718 4.85795 0 10.8665 0Z" fill="#001E36"/>
<path d="M13.8068 42.0769V15.6923C13.8068 15.5128 13.8835 15.4103 14.0625 15.4103C14.4972 15.4103 14.9063 15.4103 15.4943 15.3846C16.108 15.359 16.7472 15.359 17.4375 15.3333C18.1278 15.3077 18.8693 15.3077 19.6619 15.282C20.4546 15.2564 21.2216 15.2564 21.9886 15.2564C24.0852 15.2564 25.8239 15.5128 27.2557 16.0513C28.5341 16.4872 29.7102 17.2051 30.6818 18.1538C31.5 18.9744 32.1392 19.9744 32.5483 21.0769C32.9318 22.1538 33.1364 23.2564 33.1364 24.4103C33.1364 26.6154 32.625 28.4359 31.6023 29.8718C30.5795 31.3077 29.1477 32.3846 27.4858 33C25.7472 33.641 23.8295 33.8718 21.733 33.8718C21.1193 33.8718 20.7102 33.8718 20.4546 33.8462C20.1989 33.8205 19.8409 33.8205 19.3551 33.8205V42.0513C19.3807 42.2308 19.2528 42.3846 19.0739 42.4103C19.0483 42.4103 19.0227 42.4103 18.9716 42.4103H14.1136C13.9091 42.4103 13.8068 42.3077 13.8068 42.0769ZM19.3807 20.359V28.9744C19.7386 29 20.071 29.0256 20.3778 29.0256H21.733C22.7301 29.0256 23.7273 28.8718 24.6733 28.5641C25.4915 28.3333 26.2074 27.8462 26.7699 27.2051C27.3068 26.5641 27.5625 25.6923 27.5625 24.5641C27.5881 23.7692 27.3835 22.9744 26.9744 22.2821C26.5398 21.6154 25.9261 21.1026 25.1847 20.8205C24.2386 20.4359 23.2159 20.282 22.1676 20.3077C21.5028 20.3077 20.9148 20.3077 20.429 20.3333C19.9176 20.3077 19.5597 20.3333 19.3807 20.359Z" fill="#31A8FF"/>
<path d="M49.0909 27.4102C48.3239 27 47.5057 26.7179 46.6364 26.5384C45.6903 26.3333 44.7443 26.2051 43.7727 26.2051C43.2614 26.1795 42.7244 26.2564 42.2386 26.3846C41.9062 26.4615 41.625 26.641 41.446 26.8974C41.3182 27.1025 41.2415 27.3589 41.2415 27.5897C41.2415 27.8205 41.3437 28.0513 41.4972 28.2564C41.7273 28.5384 42.0341 28.7692 42.3665 28.9487C42.9545 29.2564 43.5682 29.5384 44.1818 29.7948C45.5625 30.2564 46.892 30.8974 48.1193 31.6666C48.9631 32.2051 49.6534 32.923 50.1392 33.7948C50.5483 34.6154 50.7528 35.5128 50.7273 36.4359C50.7528 37.641 50.3949 38.8461 49.7301 39.8461C49.0142 40.8718 48.017 41.6666 46.8665 42.1282C45.6136 42.6666 44.0795 42.9487 42.2386 42.9487C41.0625 42.9487 39.9119 42.8461 38.7614 42.6154C37.8665 42.4615 36.9716 42.1795 36.1534 41.7948C35.9744 41.6923 35.8466 41.5128 35.8722 41.3077V36.8461C35.8722 36.7692 35.8977 36.6666 35.9744 36.6154C36.0511 36.5641 36.1278 36.5897 36.2045 36.641C37.2017 37.2307 38.25 37.641 39.375 37.8974C40.3466 38.1538 41.3693 38.282 42.392 38.282C43.3636 38.282 44.054 38.1538 44.5142 37.923C44.9233 37.7436 45.2045 37.3077 45.2045 36.8461C45.2045 36.4871 45 36.1538 44.5909 35.8205C44.1818 35.4871 43.3381 35.1025 42.0852 34.6154C40.7812 34.1538 39.5795 33.5384 38.4545 32.7692C37.6619 32.2051 36.9972 31.4615 36.5114 30.5897C36.1023 29.7692 35.8977 28.8718 35.9233 27.9743C35.9233 26.8718 36.2301 25.8205 36.7926 24.8718C37.4318 23.8461 38.3778 23.0256 39.4773 22.5128C40.679 21.8974 42.1875 21.6154 44.0028 21.6154C45.0511 21.6154 46.125 21.6923 47.1733 21.8461C47.9403 21.9487 48.6818 22.1538 49.3722 22.4359C49.4744 22.4615 49.5767 22.5641 49.6278 22.6666C49.6534 22.7692 49.679 22.8718 49.679 22.9743V27.1538C49.679 27.2564 49.6278 27.3589 49.5511 27.4102C49.321 27.4615 49.1932 27.4615 49.0909 27.4102Z" fill="#31A8FF"/>
</g>
<defs>
<clipPath id="clip0_11_324">
<rect width="61.3636" height="60" fill="white"/>
</clipPath>
</defs>
</svg>
