<svg width="67" height="60" viewBox="0 0 67 60" fill="none" xmlns="http://www.w3.org/2000/svg">
<g clip-path="url(#clip0_11_301)">
<path d="M33.2432 0L14.5063 1.97276L0 21.3639L33.2432 59.9126L66.4865 21.3639L51.9805 1.97276L33.2432 0Z" fill="#FDB300"/>
<path d="M0 21.3641L33.2432 59.9126L13.4651 21.3641H0ZM53.0212 21.3641L33.2432 59.9126L66.4862 21.3641H53.0212Z" fill="#EB6C00"/>
<path d="M13.4651 21.3641L33.2432 59.9126L53.0214 21.3641H13.4651Z" fill="#FDAD00"/>
<path d="M14.5063 1.97276L13.4651 21.3639L33.2432 0L14.5063 1.97276ZM53.0211 21.3641L51.9802 1.97276L33.2432 0.000258621L53.0211 21.3641Z" fill="#FDD231"/>
<path d="M53.0214 21.3642H66.4862L51.9802 1.97278L53.0214 21.3642ZM0 21.3642H13.4651L14.5063 1.97278L0 21.3642Z" fill="#FDAD00"/>
<path d="M33.2432 0L13.4651 21.3639H53.0214L33.2432 0Z" fill="#FEEEB7"/>
</g>
<defs>
<clipPath id="clip0_11_301">
<rect width="66.4865" height="60" fill="white"/>
</clipPath>
</defs>
</svg>
